<svg width="17" height="17" viewBox="0 0 17 17" fill="none" xmlns="http://www.w3.org/2000/svg">
<path fill-rule="evenodd" clip-rule="evenodd" d="M4.25052 3.64283C4.92217 3.64283 5.4648 3.1002 5.4648 2.42855V1.21428C5.4648 0.54263 4.92217 0 4.25052 0C3.57887 0 3.03624 0.54263 3.03624 1.21428V2.42855C3.03624 3.1002 3.57887 3.64283 4.25052 3.64283ZM12.7505 3.64283C13.4222 3.64283 13.9648 3.1002 13.9648 2.42855V1.21428C13.9648 0.54263 13.4222 0 12.7505 0C12.0789 0 11.5362 0.54263 11.5362 1.21428V2.42855C11.5362 3.1002 12.0789 3.64283 12.7505 3.64283ZM14.5713 1.21422H16.6963C16.8633 1.21422 16.9999 1.35083 16.9999 1.51779V16.6963C16.9999 16.8632 16.8633 16.9998 16.6963 16.9998H0.303569C0.136606 16.9998 0 16.8632 0 16.6963V1.51779C0 1.35083 0.136606 1.21422 0.303569 1.21422H2.42855V2.75863C2.42855 3.61242 3.33926 4.24991 4.24997 4.24991C5.16068 4.24991 6.07139 3.61242 6.07139 2.75863V1.21422H10.9285V2.75863C10.9285 3.61242 11.8696 4.24991 12.7803 4.24991C13.691 4.24991 14.5713 3.61242 14.5713 2.75863V1.21422ZM15.1777 15.1784H1.82064V5.46422H15.1777V15.1784Z" fill="black"/>
</svg>
