<svg width="18" height="19" viewBox="0 0 18 19" fill="none" xmlns="http://www.w3.org/2000/svg">
<path fill-rule="evenodd" clip-rule="evenodd" d="M17.8594 15.1254L13.8844 11.0991C14.5312 9.96953 14.8688 8.71338 14.8688 7.44786C14.8688 3.34193 11.5312 0 7.43438 0C3.3375 0 0 3.34193 0 7.44786C0 11.5538 3.3375 14.8957 7.43438 14.8957C8.74219 14.8957 10.0359 14.5348 11.1891 13.8458L15.1453 17.858C15.2344 17.947 15.3609 18.0033 15.4875 18.0033C15.6141 18.0033 15.7406 17.9517 15.8297 17.858L17.8594 15.805C18.0469 15.6128 18.0469 15.3129 17.8594 15.1254ZM7.43379 2.96367C9.93691 2.96367 11.9713 5.00257 11.9713 7.51019C11.9713 10.0178 9.93691 12.0567 7.43379 12.0567C4.93066 12.0567 2.89629 10.0178 2.89629 7.51019C2.89629 5.00257 4.93066 2.96367 7.43379 2.96367Z" fill="black"/>
</svg>
